<svg xmlns="http://www.w3.org/2000/svg" xmlns:xlink="http://www.w3.org/1999/xlink" width="142.768" height="141.597" viewBox="0 0 142.768 141.597">
  <defs>
    <clipPath id="clip-path">
      <path id="Path_673" data-name="Path 673" d="M0,0H142.768V141.6H0ZM0,0" fill="#fff"/>
    </clipPath>
  </defs>
  <g id="Group_18" data-name="Group 18" clip-path="url(#clip-path)">
    <path id="Path_672" data-name="Path 672" d="M.41,75.806V.141H142.04V75.526a39.013,39.013,0,0,1-1.661,11.553c-5.066,16.989-21.436,31.342-43.877,38.579a101.151,101.151,0,0,1-12.856,3.219,109.456,109.456,0,0,1-12.1,1.51l-.175.017a107.433,107.433,0,0,1-16.237-2.257C31.505,122.982,12.71,110.14,4.654,93.728a41.673,41.673,0,0,1-3.3-9.308A38.8,38.8,0,0,1,.41,75.806Zm70.9,52.535c17.707-1.219,34.218-6.818,46.593-15.793,13.7-9.909,21.32-23.2,21.22-37.016V2.194H3.334V75.806c-.042,12.475,6.237,24.553,17.715,34.077C33.706,120.427,51.754,127.058,71.312,128.342ZM24.255,82.012c1.5-.023,2.716-.887,2.716-1.954,0-1.026-1.121-1.866-2.558-1.942A3.12,3.12,0,0,0,21.7,79.183a.441.441,0,0,0,.191.589,1.04,1.04,0,0,0,1.121-.006c.025-.018.042-.035.058-.047a1.179,1.179,0,0,1,.814-.5,1.329,1.329,0,0,1,1.495.612.51.51,0,0,1,.042.222c0,.467-.515.84-1.171.863v.012H9.015v1.079Zm23.13,0c1.5-.023,2.724-.887,2.724-1.954,0-1.026-1.129-1.866-2.558-1.942a3.127,3.127,0,0,0-2.724,1.067.441.441,0,0,0,.191.589,1.04,1.04,0,0,0,1.121-.006.464.464,0,0,1,.067-.047,1.143,1.143,0,0,1,.806-.5,1.341,1.341,0,0,1,1.5.612.664.664,0,0,1,.042.222c0,.467-.523.84-1.179.863v.012H32.145v1.079Zm23.13,0c1.511-.023,2.724-.887,2.724-1.954,0-1.026-1.129-1.866-2.558-1.942a3.127,3.127,0,0,0-2.724,1.067.449.449,0,0,0,.191.589,1.04,1.04,0,0,0,1.121-.006l.066-.047a1.143,1.143,0,0,1,.806-.5,1.341,1.341,0,0,1,1.5.612.664.664,0,0,1,.042.222c0,.467-.523.84-1.179.863v.012H55.275v1.079Zm23.13,0c1.511-.023,2.724-.887,2.724-1.954,0-1.026-1.129-1.866-2.558-1.942a3.127,3.127,0,0,0-2.724,1.067.457.457,0,0,0,.191.589,1.055,1.055,0,0,0,1.13-.006.4.4,0,0,1,.058-.047,1.143,1.143,0,0,1,.806-.5,1.341,1.341,0,0,1,1.5.612.664.664,0,0,1,.042.222c0,.467-.523.84-1.179.863v.012H78.405v1.079Zm23.13,0c1.511-.023,2.724-.887,2.724-1.954,0-1.026-1.13-1.866-2.558-1.942a3.127,3.127,0,0,0-2.724,1.067.457.457,0,0,0,.191.589,1.055,1.055,0,0,0,1.13-.006.4.4,0,0,1,.058-.047,1.161,1.161,0,0,1,.814-.5,1.335,1.335,0,0,1,1.5.612.669.669,0,0,1,.041.222c0,.467-.523.84-1.171.863l-.008.012H101.544v1.079Zm-77.97,6.409c1.512-.023,2.724-.892,2.724-1.954,0-1.026-1.121-1.866-2.558-1.948a3.139,3.139,0,0,0-2.724,1.073.457.457,0,0,0,.191.589,1.066,1.066,0,0,0,1.13-.006.367.367,0,0,0,.058-.052,1.157,1.157,0,0,1,.814-.49,1.335,1.335,0,0,1,1.495.612.669.669,0,0,1,.041.222c0,.461-.523.84-1.171.863l-.008.012H23.574v1.079Zm21.569,0c1.5-.023,2.724-.892,2.724-1.954,0-1.026-1.129-1.866-2.558-1.948a3.13,3.13,0,0,0-2.724,1.073.441.441,0,0,0,.191.589,1.051,1.051,0,0,0,1.121-.006c.025-.017.042-.035.067-.052a1.138,1.138,0,0,1,.806-.49,1.341,1.341,0,0,1,1.5.612.669.669,0,0,1,.041.222c0,.461-.523.84-1.179.863v.012H45.134v1.079Zm21.56,0c1.511-.023,2.724-.892,2.724-1.954,0-1.026-1.129-1.866-2.558-1.948a3.129,3.129,0,0,0-2.724,1.073.457.457,0,0,0,.191.589,1.066,1.066,0,0,0,1.13-.006c.017-.017.041-.035.058-.052a1.156,1.156,0,0,1,.814-.49,1.335,1.335,0,0,1,1.495.612.664.664,0,0,1,.042.222c0,.461-.523.84-1.171.863l-.008.012H66.7v1.079Zm21.569,0c1.5-.023,2.716-.892,2.716-1.954,0-1.026-1.121-1.866-2.55-1.948a3.12,3.12,0,0,0-2.724,1.073.441.441,0,0,0,.191.589,1.052,1.052,0,0,0,1.121-.006c.025-.017.041-.035.066-.052a1.139,1.139,0,0,1,.806-.49,1.33,1.33,0,0,1,1.5.612.51.51,0,0,1,.041.222c0,.461-.515.84-1.171.863v.012H88.263v1.079Zm21.56,0c1.512-.023,2.724-.892,2.724-1.954,0-1.026-1.13-1.866-2.558-1.948a3.13,3.13,0,0,0-2.724,1.073.449.449,0,0,0,.191.589,1.066,1.066,0,0,0,1.129-.006c.017-.017.041-.035.058-.052a1.138,1.138,0,0,1,.806-.49,1.341,1.341,0,0,1,1.5.612.669.669,0,0,1,.041.222c0,.461-.523.84-1.171.863l-.008.012H109.824v1.079ZM48.116,93.682c1.512-.023,2.724-.887,2.724-1.954,0-1.021-1.121-1.866-2.558-1.942a3.127,3.127,0,0,0-2.724,1.067.457.457,0,0,0,.191.589,1.054,1.054,0,0,0,1.129-.006.363.363,0,0,0,.058-.047,1.157,1.157,0,0,1,.814-.49,1.332,1.332,0,0,1,1.495.606.669.669,0,0,1,.041.222c0,.467-.523.846-1.171.863l-.008.017H32.884v1.073Zm22.507,0c1.511-.023,2.724-.887,2.724-1.954,0-1.021-1.129-1.866-2.558-1.942a3.127,3.127,0,0,0-2.724,1.067.449.449,0,0,0,.191.589,1.054,1.054,0,0,0,1.129-.006c.017-.018.042-.029.058-.047a1.138,1.138,0,0,1,.806-.49,1.339,1.339,0,0,1,1.5.606.669.669,0,0,1,.042.222c0,.467-.523.846-1.179.863v.017H55.383v1.073Zm22.507,0c1.5-.023,2.716-.887,2.716-1.954,0-1.021-1.121-1.866-2.55-1.942a3.118,3.118,0,0,0-2.724,1.067.441.441,0,0,0,.191.589,1.04,1.04,0,0,0,1.121-.006.363.363,0,0,0,.058-.047,1.174,1.174,0,0,1,.814-.49,1.327,1.327,0,0,1,1.5.606.51.51,0,0,1,.041.222c0,.467-.515.846-1.171.863v.017H77.89v1.073Zm22.5,0c1.512-.023,2.724-.887,2.724-1.954,0-1.021-1.13-1.866-2.558-1.942a3.127,3.127,0,0,0-2.724,1.067.457.457,0,0,0,.191.589,1.054,1.054,0,0,0,1.129-.006.375.375,0,0,0,.058-.047,1.156,1.156,0,0,1,.814-.49,1.332,1.332,0,0,1,1.495.606.669.669,0,0,1,.041.222c0,.467-.523.846-1.171.863l-.008.017H100.4v1.073ZM36.073,98.336c1.511-.023,2.724-.887,2.724-1.954,0-1.026-1.129-1.866-2.558-1.942a3.127,3.127,0,0,0-2.724,1.067.457.457,0,0,0,.191.589,1.054,1.054,0,0,0,1.129-.006.41.41,0,0,1,.058-.047,1.162,1.162,0,0,1,.806-.5,1.349,1.349,0,0,1,1.5.612.669.669,0,0,1,.042.222c0,.467-.523.846-1.179.863v.012H20.833v1.079Zm22.507,0c1.5-.023,2.716-.887,2.716-1.954,0-1.026-1.121-1.866-2.55-1.942a3.118,3.118,0,0,0-2.724,1.067.441.441,0,0,0,.191.589,1.04,1.04,0,0,0,1.121-.006.449.449,0,0,1,.066-.047,1.162,1.162,0,0,1,.806-.5,1.332,1.332,0,0,1,1.5.612.51.51,0,0,1,.041.222c0,.467-.515.846-1.171.863v.012H43.34v1.079Zm22.5,0c1.512-.023,2.724-.887,2.724-1.954,0-1.026-1.121-1.866-2.558-1.942a3.137,3.137,0,0,0-2.724,1.067.457.457,0,0,0,.191.589,1.054,1.054,0,0,0,1.129-.006c.025-.018.041-.035.058-.047a1.181,1.181,0,0,1,.814-.5,1.342,1.342,0,0,1,1.495.612.669.669,0,0,1,.041.222c0,.467-.523.846-1.171.863l-.008.012H65.848v1.079Zm22.507,0c1.511-.023,2.724-.887,2.724-1.954,0-1.026-1.129-1.866-2.558-1.942a3.127,3.127,0,0,0-2.724,1.067.457.457,0,0,0,.191.589,1.054,1.054,0,0,0,1.129-.006.41.41,0,0,1,.058-.047,1.162,1.162,0,0,1,.806-.5,1.349,1.349,0,0,1,1.5.612.669.669,0,0,1,.042.222c0,.467-.523.846-1.179.863v.012H88.347v1.079Zm22.507,0c1.5-.023,2.716-.887,2.716-1.954,0-1.026-1.121-1.866-2.55-1.942a3.118,3.118,0,0,0-2.724,1.067.441.441,0,0,0,.191.589,1.04,1.04,0,0,0,1.121-.006.448.448,0,0,1,.066-.047,1.163,1.163,0,0,1,.806-.5,1.337,1.337,0,0,1,1.5.612.51.51,0,0,1,.041.222c0,.467-.515.846-1.171.863v.012H110.854v1.079ZM49.42,103.829c1.512-.023,2.724-.886,2.724-1.954,0-1.026-1.13-1.866-2.558-1.948A3.13,3.13,0,0,0,46.862,101a.457.457,0,0,0,.191.589,1.066,1.066,0,0,0,1.13-.006c.017-.017.041-.035.058-.052a1.156,1.156,0,0,1,.814-.49,1.335,1.335,0,0,1,1.5.612.669.669,0,0,1,.041.222c0,.461-.523.84-1.171.863l-.008.012H34.188v1.079Zm22.507,0c1.5-.023,2.724-.886,2.724-1.954,0-1.026-1.129-1.866-2.558-1.948A3.13,3.13,0,0,0,69.369,101a.449.449,0,0,0,.191.589,1.066,1.066,0,0,0,1.129-.006c.017-.017.042-.035.058-.052a1.138,1.138,0,0,1,.806-.49,1.341,1.341,0,0,1,1.5.612.669.669,0,0,1,.041.222c0,.461-.523.84-1.179.863v.012H56.687v1.079Zm22.5,0c1.511-.023,2.724-.886,2.724-1.954,0-1.026-1.121-1.866-2.558-1.948A3.139,3.139,0,0,0,91.868,101a.453.453,0,0,0,.2.589,1.052,1.052,0,0,0,1.121-.006.366.366,0,0,0,.058-.052,1.173,1.173,0,0,1,.814-.49,1.329,1.329,0,0,1,1.495.612.507.507,0,0,1,.042.222c0,.461-.515.84-1.171.863l-.008.012H79.194v1.079Zm22.507,0c1.512-.023,2.724-.886,2.724-1.954,0-1.026-1.13-1.866-2.558-1.948A3.13,3.13,0,0,0,114.375,101a.457.457,0,0,0,.191.589,1.066,1.066,0,0,0,1.13-.006c.017-.017.041-.035.058-.052a1.157,1.157,0,0,1,.814-.49,1.335,1.335,0,0,1,1.5.612.669.669,0,0,1,.041.222c0,.461-.523.84-1.171.863l-.008.012H101.693v1.079Zm-93.742,4.263,1.4,1.073H38.432c1.512-.018,2.724-.887,2.724-1.948,0-1.026-1.13-1.866-2.558-1.948a3.115,3.115,0,0,0-2.724,1.073.442.442,0,0,0,.191.583,1.054,1.054,0,0,0,1.129-.006.434.434,0,0,0,.058-.047,1.138,1.138,0,0,1,.806-.49,1.347,1.347,0,0,1,1.5.606.7.7,0,0,1,.041.228c0,.461-.523.84-1.171.857l-.008.017Zm36.958,1.073c1.511-.018,2.724-.887,2.724-1.948,0-1.026-1.129-1.866-2.558-1.948a3.124,3.124,0,0,0-2.724,1.073.45.45,0,0,0,.191.583,1.055,1.055,0,0,0,1.13-.006.194.194,0,0,0,.058-.047,1.156,1.156,0,0,1,.814-.49,1.34,1.34,0,0,1,1.495.606.7.7,0,0,1,.042.228c0,.461-.523.84-1.171.857l-.008.017H44.918v1.073Zm21.726,0c1.5-.018,2.716-.887,2.716-1.948,0-1.026-1.121-1.866-2.558-1.948a3.1,3.1,0,0,0-2.716,1.073.435.435,0,0,0,.191.583,1.04,1.04,0,0,0,1.121-.006.488.488,0,0,0,.067-.047,1.138,1.138,0,0,1,.806-.49A1.335,1.335,0,0,1,83,106.99a.536.536,0,0,1,.041.228c0,.461-.515.84-1.171.857v.017H66.637v1.073Zm21.718,0c1.511-.018-10.838-34.38-10.838-35.442,0-1.026,12.433,31.627,11,31.546a3.115,3.115,0,0,0-2.724,1.073.442.442,0,0,0,.191.583,1.055,1.055,0,0,0,1.13-.006.42.42,0,0,0,.058-.047,1.138,1.138,0,0,1,.806-.49,1.347,1.347,0,0,1,1.5.606.7.7,0,0,1,.042.228c0,.461-.523.84-1.179.857v.017H88.355v1.073ZM49.4,114.432c1.511-.023,2.724-.886,2.724-1.954,0-1.026-1.13-1.866-2.558-1.948a3.13,3.13,0,0,0-2.724,1.073.457.457,0,0,0,.191.589,1.067,1.067,0,0,0,1.13-.006.406.406,0,0,1,.058-.047,1.142,1.142,0,0,1,.806-.5,1.342,1.342,0,0,1,1.5.612.668.668,0,0,1,.041.222c0,.467-.523.84-1.171.863l-.008.012H34.163v1.079Zm23.288,0c1.512-.023,2.724-.886,2.724-1.954,0-1.026-1.13-1.866-2.558-1.948a3.13,3.13,0,0,0-2.724,1.073.457.457,0,0,0,.191.589,1.067,1.067,0,0,0,1.13-.006.4.4,0,0,1,.058-.047,1.126,1.126,0,0,1,.806-.5,1.342,1.342,0,0,1,1.5.612.669.669,0,0,1,.041.222c0,.467-.523.84-1.171.863l-.008.012H57.451v1.079Zm23.288,0c1.511-.023,2.724-.886,2.724-1.954,0-1.026-1.129-1.866-2.558-1.948a3.13,3.13,0,0,0-2.724,1.073.457.457,0,0,0,.191.589,1.066,1.066,0,0,0,1.129-.006.407.407,0,0,1,.058-.047,1.125,1.125,0,0,1,.806-.5,1.341,1.341,0,0,1,1.5.612.669.669,0,0,1,.041.222c0,.467-.523.84-1.171.863l-.008.012H80.739v1.079Zm-35.6,5.8c1.511-.023,2.724-.886,2.724-1.954,0-1.026-1.129-1.866-2.558-1.948a3.13,3.13,0,0,0-2.724,1.073.457.457,0,0,0,.191.589,1.054,1.054,0,0,0,1.129-.006.408.408,0,0,1,.058-.047,1.144,1.144,0,0,1,.806-.5,1.341,1.341,0,0,1,1.5.612.668.668,0,0,1,.041.222c0,.467-.523.84-1.171.863l-.008.012H45.134v1.079Zm23.288,0c1.511-.023,2.724-.886,2.724-1.954,0-1.026-1.129-1.866-2.558-1.948A3.13,3.13,0,0,0,81.1,117.4a.457.457,0,0,0,.191.589,1.054,1.054,0,0,0,1.13-.006.408.408,0,0,1,.058-.047,1.162,1.162,0,0,1,.814-.5,1.335,1.335,0,0,1,1.495.612.663.663,0,0,1,.042.222c0,.467-.523.84-1.171.863l-.008.012H68.43v1.079ZM71.3,127.42c17.358-1.213,33.537-6.707,45.662-15.513,13.455-9.74,20.938-22.8,20.846-36.369V3.109H4.638v72.7C4.6,88.065,10.767,99.939,22.046,109.294,34.454,119.628,52.144,126.137,71.3,127.42Zm64.839-50.78H6.307V75.4H136.152v.146C136.152,75.911,136.152,76.273,136.143,76.64ZM6.324,77c.341,11.571,6.337,22.71,16.993,31.54,12.1,10.066,29.317,16.417,47.988,17.712,16.9-1.213,32.656-6.579,44.466-15.152,12.649-9.168,19.916-21.34,20.356-34.1ZM54.7,68.761H49.519v6.281H46.9V68.761H41.231v6.281H38.615V68.761H32.934v6.281H30.318V68.761H25.085V67.548H54.793Zm-4.668,6.281V69.117h4.643l-.432,5.925Zm37.8-5.64v-.286h4.643v5.925H88.239Zm5.158,5.64V68.761H87.782l-.091-1.213h29.733v1.213h-5.232v6.281h-2.616V68.761H103.9v6.281h-2.625V68.761H95.605v6.281Zm-67.9-5.925h4.726v5.925H25.085Zm-3.422-1.47H16.672l-.324-.006v.006H16.34v.2l-.349,7.191H13.109l.955-8.806H24.579v8.806H22.353l-.365-7.389v-.012Zm-4.825.362H21.5l.341,7.033H16.5Zm16.611,7.033V69.117h4.643v5.925Zm8.289,0V69.117h4.651v5.925Zm78.933,0,.341-7.033h4.659l.341,7.033Zm.175-7.4-.324-.006v.012l-.357,7.389H117.93V66.236h10.514l.955,8.806h-2.874l-.357-7.191v-.2h-.008v-.006l-.324.006Zm-16.428,7.4V69.117h4.643v5.925Zm-8.3,0V69.117h4.651v5.925Zm16.585,0V69.117h4.718v5.925Zm17.209,0-.963-8.847a2.511,2.511,0,0,1,.59-.846,3.41,3.41,0,0,1,.5-.385,4.264,4.264,0,0,1,.507-.286l.1-.047V64.3h-.282v-.006c-.008,0-.008.006-.017.006H116s0-.006-.008-.006V64.3h-.274v.338l.1.047a4.893,4.893,0,0,1,.5.28,2.951,2.951,0,0,1,.49.385,2.38,2.38,0,0,1,.606.887h.008v.956H87.666l-1.927-26.4H83.422a4.282,4.282,0,0,1,2.492-2.269V38.5h2.732V36.428H81.212v-1.6H79.2V22.413h.473V20.652H77.118V18.867H74.792V12.382h-.938V10.726h.922V10.37h-.017l-3.53-1.983-.49.274L67.691,10.37h-.008v.356h1.129v1.656H67.683v6.485H64.967v1.785H62.409v1.761h1.055V34.824h-2.01v1.6H54.029V38.5h2.732v.018a4.306,4.306,0,0,1,2.492,2.269H56.745l-1.927,26.4H25.085v-.956h.008a2.38,2.38,0,0,1,.606-.887,3.419,3.419,0,0,1,.5-.385,4.065,4.065,0,0,1,.49-.28l.1-.047V64.3h-.274v-.006l-.008.006H12.162c-.008,0-.008-.006-.008-.006l-.008.006h-.274v.332l.091.047a4.282,4.282,0,0,1,.507.286,3.418,3.418,0,0,1,.5.385,2.512,2.512,0,0,1,.59.846l-.963,8.847H6.307V4.281H136.152V75.042Zm-1.4-9.168H117.839a2.859,2.859,0,0,0-.581-.758,3.91,3.91,0,0,0-.565-.443l-.025-.017H129.69a.119.119,0,0,1-.033.017,3.9,3.9,0,0,0-.565.443A3.046,3.046,0,0,0,128.511,65.874ZM54.785,75.042l.017-.2h-.033l2.467-33.7H85.257l2.458,33.7h-.008l.025.2H81.2l-.025-1.318L79.684,46.319H62.8L61.7,73.724l-.017,1.318ZM78.7,34.824H75.631V22.413H78.7Zm-3.579,0H67.55V22.413h7.566Zm-8.081,0H63.979V22.413h3.056Zm-5.074,1.6V35.18H80.706v1.248ZM57.584,38.5H85.066l-.556.315a4.287,4.287,0,0,0-1.478,1.639h-.025l.066.332H59.7l.008-.332h-.075a4.221,4.221,0,0,0-1.478-1.639h.008Zm30.547-1.715v1.353H54.536V36.789ZM14,65.874a3.047,3.047,0,0,0-.581-.758,3.905,3.905,0,0,0-.565-.443.12.12,0,0,1-.033-.017H25.841l-.025.017a3.91,3.91,0,0,0-.565.443,2.859,2.859,0,0,0-.581.758Zm66.666,7.85.025,1.318h-18.5l.025-1.318,1.08-27.043H79.2Zm-7.317-63v1.656H69.319V10.726ZM71.229,8.842l2.716,1.528H68.514ZM67.035,21.008v1.05H62.916v-1.05Zm.515,1.05v-1.05h7.566v1.05Zm8.081,0v-1.05h3.538v1.05Zm-3.3-9.32v6.13h-2v-6.13Zm.515,6.13v-6.13h1.437v6.13Zm-3.023-6.13v6.13H68.19v-6.13Zm-2.143,6.485v1.429H65.474V19.223Zm.506,1.429V19.223h6.1v1.429Zm6.6,0V19.223h1.819v1.429Zm-2.159,8.929H69.818v2.6h2.815Zm.125-3.843c0-.589-.681-1.073-1.528-1.073s-1.528.484-1.528,1.073.681,1.079,1.528,1.079S72.758,26.333,72.758,25.738Zm-.241,23.719H69.942v3.377h2.575Zm0,6.509H69.942v3.371h2.575Zm0,6.625H69.942v3.371h2.575ZM69,74.191V75h4.46V72.009c0-.863-1-1.563-2.226-1.563S69,71.146,69,72.009v2.181Zm-15.24-2.805c0-.554-.631-1-1.412-1s-1.412.443-1.412,1,.631.991,1.412.991S53.755,71.934,53.755,71.385Zm-24.991,0c0-.5-.573-.9-1.279-.9s-1.287.4-1.287.9.573.9,1.287.9S28.765,71.881,28.765,71.385Zm8.3,0c0-.5-.581-.9-1.287-.9s-1.287.4-1.287.9.581.9,1.287.9S37.061,71.881,37.061,71.385Zm8.289,0c0-.5-.573-.9-1.287-.9s-1.279.4-1.279.9.573.9,1.279.9S45.35,71.881,45.35,71.385ZM21.647,7.028l-.116.35L67.525,13.77v-.362Zm1.786,5.237-.033.356,44.1,1.744.025-.356Zm7.35,2.659-.017.362,36.759-.262v-.356Zm3.854,2.088v.356l32.889-1.347v-.356Zm4.111,2.105.083.356,28.695-2.683V16.43Zm6.927,1.47.141.344,21.71-3.493v-.292l-.025-.07Zm4.933.712.166.338,16.752-3.686v-.373ZM120.762,7.028l.116.35-46,6.392v-.362Zm-1.786,5.237.033.356-44.1,1.744-.025-.356Zm-7.35,2.659.008.362-36.759-.262v-.356Zm-3.854,2.088-.008.356L74.875,16.021v-.356Zm-4.119,2.105-.075.356-28.7-2.683V16.43Zm-6.918,1.47-.141.344L74.875,17.439v-.292l.025-.07ZM91.8,21.3l-.166.338-16.76-3.686v-.373ZM88.753,71.385c0-.554.631-1,1.412-1s1.412.443,1.412,1-.631.991-1.412.991S88.753,71.934,88.753,71.385Zm24.991,0c0-.5.573-.9,1.279-.9s1.287.4,1.287.9-.573.9-1.287.9S113.744,71.881,113.744,71.385Zm-8.289,0c0-.5.573-.9,1.279-.9s1.287.4,1.287.9-.573.9-1.287.9S105.455,71.881,105.455,71.385Zm-8.3,0c0-.5.573-.9,1.287-.9s1.279.4,1.279.9-.573.9-1.279.9S97.158,71.881,97.158,71.385Zm38.2,10.626c.066-.356.125-.717.174-1.079H124.674v1.079ZM10.584,92.608c.183.356.365.717.556,1.073H25.617c1.5-.023,2.716-.887,2.716-1.954,0-1.021-1.121-1.866-2.55-1.942a3.118,3.118,0,0,0-2.724,1.067.441.441,0,0,0,.191.589,1.04,1.04,0,0,0,1.121-.006l.066-.047a1.138,1.138,0,0,1,.806-.49,1.327,1.327,0,0,1,1.495.606.507.507,0,0,1,.042.222c0,.467-.515.846-1.171.863v.017Zm120.659,1.073c.2-.356.382-.717.565-1.073H122.9v1.073ZM17.561,102.75c.324.362.656.723,1,1.079h8.363c1.5-.023,2.716-.886,2.716-1.954,0-1.026-1.121-1.866-2.55-1.948A3.12,3.12,0,0,0,24.363,101a.441.441,0,0,0,.191.589,1.051,1.051,0,0,0,1.121-.006.359.359,0,0,0,.058-.052,1.173,1.173,0,0,1,.814-.49,1.329,1.329,0,0,1,1.495.612.507.507,0,0,1,.042.222c0,.461-.515.84-1.171.863v.012Zm100.427,6.415c.44-.35.88-.712,1.3-1.073h-9.21v1.073Zm-7.632,5.266c.59-.35,1.171-.712,1.752-1.079h-8.073v1.079ZM8.4,87.342c.125.362.249.717.374,1.079h8.48c1.512-.023,2.724-.892,2.724-1.954,0-1.026-1.13-1.866-2.558-1.948A3.13,3.13,0,0,0,14.7,85.592a.449.449,0,0,0,.191.589,1.066,1.066,0,0,0,1.13-.006c.017-.017.042-.035.058-.052a1.138,1.138,0,0,1,.806-.49,1.342,1.342,0,0,1,1.5.612.668.668,0,0,1,.042.222c0,.461-.523.84-1.171.863l-.008.012Zm89.88,32.887c.905-.344,1.794-.706,2.683-1.079H91.386v1.079Zm-39.7,4.147q3.189.638,6.47,1.079h8.1c1.5-.023,2.716-.886,2.716-1.954,0-1.026-1.121-1.866-2.55-1.948a3.13,3.13,0,0,0-2.724,1.073.441.441,0,0,0,.191.589,1.052,1.052,0,0,0,1.121-.006c.025-.017.042-.035.067-.052a1.138,1.138,0,0,1,.806-.49,1.347,1.347,0,0,1,1.5.612.669.669,0,0,1,.042.222c0,.461-.523.84-1.179.863v.012Zm73.4-10.778.05.023.473-.262a1.063,1.063,0,0,1,.415-.111,4.49,4.49,0,0,1,.656.018l4.053.379,1.495.77c.191.1.374.2.54.286s.307.163.432.233c.075.047.1.105.058.175l-.257.519.266.111c.3-.3.648-.642,1.071-1.038.4-.385.756-.723,1.08-1.015l-.257-.117-.581.292a.3.3,0,0,1-.3.029c-.133-.064-.274-.134-.44-.222s-.349-.175-.54-.274l-1.611-.834-1.777-2.578a1.425,1.425,0,0,1-.158-.292.374.374,0,0,1,.025-.28l.224-.443-.274-.111c-.241.251-.5.5-.764.758q-.436.42-.847.787l.274.122.44-.245a.374.374,0,0,1,.365-.047.828.828,0,0,1,.233.2c.075.093.166.216.266.362l1.213,1.639-2.815-.28c-.2-.012-.365-.029-.5-.047a.9.9,0,0,1-.3-.087c-.05-.023-.083-.058-.083-.1a.207.207,0,0,1,.05-.152l.241-.414-.274-.111c-.415.414-.856.846-1.337,1.306-.415.391-.748.7-.988.916h-.025c-.648.537-1.279,1.038-1.877,1.516l-1.121.887c-.606.478-1.237.968-1.91,1.481l.008.047,1.836.992.183-.2-.864-1.056,1.154-.916,4.51,2.811c.365.228.664.414.889.56a.118.118,0,0,1,.041.175l-.44.636.249.128c.424-.344.864-.706,1.337-1.079.448-.356.905-.706,1.354-1.056l-.241-.134-.83.373a.267.267,0,0,1-.257-.006c-.233-.14-.532-.321-.9-.548l-4.51-2.805,1.163-.921,1.528.589.183-.2ZM3.89,110.665l1.4,1.44-.731.688c-.141.128-.249.233-.341.309a.937.937,0,0,1-.233.163.315.315,0,0,1-.166.035.471.471,0,0,1-.174-.064l-.49-.28-.233.14c.4.4.8.811,1.213,1.236.307.315.615.636.905.956l.249-.128-.183-.414a.332.332,0,0,1-.017-.292,1.3,1.3,0,0,1,.324-.391l4.734-4.479-.448-.338-7.882,1.207a2.853,2.853,0,0,1-.532.047.757.757,0,0,1-.374-.1l-.523-.3-.241.14c.282.28.54.531.756.752.2.216.465.49.781.834l.257-.134-.183-.408a.2.2,0,0,1-.025-.128.171.171,0,0,1,.1-.1,1.708,1.708,0,0,1,.307-.082c.133-.029.324-.064.556-.1Zm3.663-.642c-.141.122-.282.251-.432.391l-1.428,1.312-1.138-1.172,2.317-.4C7.113,110.11,7.337,110.07,7.553,110.023Zm5.207,4.24c-.008,0,.1-.058.316-.175s.374-.216.49-.28a.269.269,0,0,1,.241.006l.656.3.224-.152c-.341-.274-.731-.6-1.179-.986-.424-.367-.806-.7-1.113-.992l-.241.152.291.513c.042.064.017.122-.066.169-.1.064-.224.134-.349.21s-.274.163-.432.257L7.785,115.47q-.287.166-.523.3c-.158.093-.3.169-.432.239a.269.269,0,0,1-.249,0l-.656-.309-.216.157c.332.268.689.572,1.071.9l.947.817c.6.513,1.213,1.05,1.835,1.592l.058.006,1.985-1-.282-.175-1.877.327-1.495-1.283c.341-.2.681-.4,1.03-.6Zm5.108,2.28q-.536-.385-1.1-.822l-.216.163.39.525q.062.1-.05.175c-.091.07-.208.146-.324.228s-.257.175-.4.28l-3.538,2.4c-.174.123-.341.228-.49.327s-.282.187-.4.268a.286.286,0,0,1-.257.006l-.723-.3-.2.169c.39.274.764.537,1.13.8l1.113.811c.656.484,1.337.98,2.026,1.493h.058l1.761-1.056-.3-.157-1.694.408-1.678-1.225c.307-.222.631-.437.955-.659l1.52-1.032.224.163c.249.175.507.373.789.583.066.047.066.111.008.181l-.473.536.3.187c.424-.3.731-.513.939-.653s.54-.361.972-.647l-.282-.192-.764.3a.265.265,0,0,1-.257-.023c-.291-.2-.556-.385-.8-.566l-.224-.163,2.35-1.6,1.628,1.184-.806.927.257.14,1.736-.817.008-.041c-.739-.525-1.453-1.032-2.134-1.528Zm4.518,11.069-.075.087c.407.192.764.367,1.08.525.3.152.681.344,1.154.589l.174-.192-.374-.332a.206.206,0,0,1-.091-.117.129.129,0,0,1,.05-.117,1.047,1.047,0,0,1,.241-.152c.116-.058.274-.14.473-.233l1.021-.484,2.018,1-.349.828c-.058.158-.116.28-.158.373a.653.653,0,0,1-.141.21.3.3,0,0,1-.141.076.473.473,0,0,1-.191-.023l-.6-.14-.15.192c.573.274,1.154.56,1.753.857.448.222.889.449,1.329.676l.166-.187-.382-.338a.447.447,0,0,1-.166-.274,1.143,1.143,0,0,1,.116-.443l2.217-5.354-.59-.21L23.989,127.5a3.209,3.209,0,0,1-.473.175.877.877,0,0,1-.407-.006l-.631-.146-.349-.379a.491.491,0,0,1-.158-.251,1.666,1.666,0,0,1,.058-.455l.681-3.021,2.932-.572a5.182,5.182,0,0,1,.631-.093,1.288,1.288,0,0,1,.432.053l.631.21.183-.181c-.349-.2-.714-.408-1.088-.636-.39-.239-.747-.467-1.08-.676l-.2.181.307.321c.091.105.1.181.025.239a1.154,1.154,0,0,1-.382.158c-.183.047-.39.093-.614.134l-1.661.35.316-1.365c.025-.117.058-.222.091-.332a.406.406,0,0,1,.141-.233.24.24,0,0,1,.141-.058.544.544,0,0,1,.191.041l.506.163.175-.187c-.548-.315-1.071-.624-1.553-.916-.565-.344-1.055-.647-1.47-.916l-.191.181.365.373a.476.476,0,0,1,.141.251.991.991,0,0,1-.033.391l-.623,2.729-3.5.694a2.491,2.491,0,0,1-.556.076,1.532,1.532,0,0,1-.432-.058l-.656-.216-.183.175c.374.216.731.432,1.088.642.39.239.756.467,1.088.682l.2-.181-.3-.315a.26.26,0,0,1-.066-.128.158.158,0,0,1,.066-.1.969.969,0,0,1,.39-.158c.183-.047.382-.093.606-.14l2.134-.461-.39,1.732c-.025.111-.058.222-.083.327a.489.489,0,0,1-.149.233.249.249,0,0,1-.133.053.528.528,0,0,1-.2-.035l-.507-.169-.166.187c.59.35,1.13.671,1.611.962.523.315.988.606,1.4.869Zm6.761-1.924c-.067.146-.141.3-.216.472l-.681,1.575-1.645-.822,1.968-.939C28.773,125.875,28.972,125.781,29.147,125.688Zm2.865,6.019c.149-.2.341-.443.582-.741l1.935-2.385c.125-.152.257-.327.407-.513.033.222.067.408.091.572l1.138,5.371.631.2,3.389-4.182c.208-.251.382-.455.523-.618a.25.25,0,0,1,.232-.076l.831.14.125-.2c-.473-.175-.872-.327-1.179-.449s-.69-.286-1.163-.49l-.149.21.565.4c.075.052.091.111.05.169-.141.181-.307.391-.5.636l-1.595,1.96c-.125.163-.257.327-.39.507-.033-.2-.075-.391-.108-.572l-.955-4.537c-.316-.111-.648-.233-.988-.373-.266-.1-.64-.262-1.121-.467l-.141.2.59.432a.11.11,0,0,1,.025.175c-.125.163-.291.373-.5.624l-2.434,3c-.232.3-.44.542-.614.747a.246.246,0,0,1-.233.058l-.822-.14-.125.2c.49.187.889.338,1.188.461s.7.28,1.163.478l.141-.2-.565-.4A.108.108,0,0,1,32.012,131.707Zm8.347,3.721c.357.111.681.216.98.315s.631.2,1.013.321a6.73,6.73,0,0,0,3.762.181,4.23,4.23,0,0,0,2.558-1.93,1.9,1.9,0,0,0,.124-2.2,5.051,5.051,0,0,0-2.724-1.581c-.39-.117-.772-.228-1.146-.327s-.764-.2-1.163-.327c-.473-.146-.964-.3-1.479-.467l-.108.2.648.385a.109.109,0,0,1,.05.169c-.05.093-.108.192-.174.3s-.141.227-.216.362L40.525,134c-.091.157-.183.3-.266.431s-.166.251-.233.356a.226.226,0,0,1-.224.076l-.83-.076-.1.2C39.387,135.136,39.877,135.282,40.359,135.428Zm1.312-.082,2.94-4.759q.548.131,1.022.28c.864.257,1.37.647,1.528,1.161A2.515,2.515,0,0,1,46.654,134a3.956,3.956,0,0,1-1.777,1.662,3.155,3.155,0,0,1-2.2.052c-.174-.052-.349-.111-.515-.169A4.332,4.332,0,0,1,41.671,135.346Zm9.908,1.715.615-1.376.241.052a.875.875,0,0,1,.141.053.359.359,0,0,1,.1.076.277.277,0,0,1,.066.117c.017.047.041.111.075.187.091.262.174.525.249.793s.149.513.224.752.149.449.233.641a1.43,1.43,0,0,0,.307.5,1.363,1.363,0,0,0,.341.245,3.989,3.989,0,0,0,.789.233c.482.1.922.181,1.312.227l.075-.216a2.329,2.329,0,0,1-.241-.1.94.94,0,0,1-.2-.1,1,1,0,0,1-.166-.123,1.218,1.218,0,0,1-.149-.152,2.1,2.1,0,0,1-.241-.461c-.075-.187-.149-.4-.241-.647s-.166-.5-.241-.747-.208-.577-.382-.992a4,4,0,0,0,1.595-.292,1.73,1.73,0,0,0,.9-.892.959.959,0,0,0-.282-1.2,4.827,4.827,0,0,0-2.06-.846c-.091-.017-.216-.041-.374-.076s-.349-.07-.582-.117c-.257-.047-.473-.093-.656-.128l-.448-.087c-.565-.128-1.113-.251-1.644-.385l-.075.216.7.332c.083.041.108.093.075.169-.033.093-.075.2-.125.309s-.108.239-.166.379l-1.47,3.3c-.075.163-.141.315-.208.449s-.125.257-.174.367a.211.211,0,0,1-.216.093l-.839-.017-.058.216c.523.105,1.13.233,1.8.385.631.14,1.154.257,1.578.361l.075-.21-.532-.274a.134.134,0,0,1-.066-.192c.05-.1.1-.227.149-.356S51.5,137.23,51.579,137.061Zm.781-1.738,1.038-2.339c.133.017.249.035.357.047s.2.035.291.058a1.572,1.572,0,0,1,1.013.531.982.982,0,0,1-.033.968,1.532,1.532,0,0,1-.789.84,2.231,2.231,0,0,1-1.329.029C52.742,135.422,52.559,135.375,52.36,135.323Zm8.015,3.418,1.1-3.383c.041-.134.083-.257.125-.373s.083-.227.116-.327a.207.207,0,0,1,.2-.1l.839-.029.041-.216q-.822-.114-1.844-.28c-.664-.111-1.271-.21-1.811-.309l-.05.216.731.292c.083.035.116.087.1.163-.033.093-.058.2-.1.315s-.075.245-.124.385l-1.1,3.365c-.058.169-.108.327-.158.461s-.091.268-.133.379q-.037.1-.2.1l-.839.029-.041.216c.54.076,1.155.175,1.844.286.664.1,1.271.21,1.81.3l.05-.216-.673-.262c-.125-.047-.175-.1-.158-.181.033-.111.075-.233.116-.373S60.316,138.909,60.374,138.74Zm4.219.017,2.45.262.224.846c.042.157.075.286.091.385a.6.6,0,0,1,.017.233.165.165,0,0,1-.083.1.469.469,0,0,1-.183.047l-.623.064-.017.216c.69.064,1.4.134,2.11.21.548.058,1.088.122,1.628.187l.025-.216-.556-.187a.716.716,0,0,1-.316-.187,1.26,1.26,0,0,1-.191-.437L67.716,134.8H67.06l-4.095,4.882a2,2,0,0,1-.316.3.635.635,0,0,1-.365.122l-.673.07-.017.216c.49.047.922.087,1.3.128.365.035.83.093,1.412.163l.025-.227-.548-.181a.33.33,0,0,1-.149-.076.118.118,0,0,1-.033-.117.61.61,0,0,1,.116-.216c.066-.087.158-.21.274-.356Zm1.819-2.321c.033.158.067.321.108.49l.407,1.621-2-.21,1.154-1.464C66.2,136.722,66.313,136.576,66.412,136.437Zm22.723,2.572c-.1-.21-.208-.478-.349-.8L87.7,135.568c-.066-.169-.149-.362-.241-.566.249.14.465.257.656.35l6.271,3.178.648-.181-1.91-4.625c-.116-.274-.2-.507-.266-.694a.12.12,0,0,1,.083-.163l.722-.327-.116-.2c-.515.117-.947.21-1.287.28s-.772.152-1.312.251l.108.216.806-.006c.108,0,.174.029.208.093.083.192.183.426.291.694l.9,2.164c.075.181.158.361.241.554-.224-.122-.449-.239-.656-.344l-5.29-2.683c-.34.082-.7.163-1.08.239-.291.058-.706.134-1.254.233l.108.21.847.006a.189.189,0,0,1,.191.111c.083.181.183.408.3.688l1.371,3.313c.133.327.241.607.324.834q.037.1-.1.158l-.714.315.116.2c.532-.117.963-.21,1.3-.274s.772-.152,1.3-.251l-.108-.216-.8.006A.194.194,0,0,1,89.136,139.008Zm10-3.19-1.761-3.243c-.066-.128-.133-.251-.191-.362s-.116-.216-.158-.315c-.033-.07,0-.122.075-.163l.681-.35-.141-.2c-.515.146-1.1.309-1.752.484-.64.175-1.221.321-1.752.449l.133.2.839-.047a.216.216,0,0,1,.208.1c.058.093.116.192.174.3s.125.233.2.367l1.753,3.225c.091.163.166.309.241.443s.133.257.183.367c.025.064,0,.122-.083.163l-.673.356.133.192c.515-.146,1.1-.309,1.761-.484q.947-.254,1.744-.455l-.125-.192-.772.041a.28.28,0,0,1-.274-.088c-.058-.1-.125-.222-.2-.356S99.226,135.982,99.135,135.818Zm6.785-7.08.806-.14a.239.239,0,0,1,.224.07c.075.087.158.181.241.28s.183.216.291.338l2.475,2.98c.125.152.241.292.34.414s.191.233.266.338c.05.064.033.123-.041.175l-.581.426.183.175c.465-.2.93-.4,1.379-.583l1.379-.566c.822-.338,1.669-.676,2.541-1.026l.017-.041-1.038-1.452-.291.163.158,1.254-2.085.857c-.232-.268-.465-.537-.689-.811l-1.063-1.283.274-.117c.307-.122.64-.257,1-.4a.262.262,0,0,1,.249.041l.631.443.332-.158c-.316-.356-.54-.618-.681-.793s-.374-.455-.664-.817l-.332.152.241.589q.037.114-.1.175c-.34.146-.664.28-.963.408l-.282.111-1.653-1.983,2.018-.828,1.088.77.257-.146-.714-1.376-.058-.017c-.9.385-1.777.747-2.616,1.1l-1.321.542c-.44.175-.905.361-1.4.554l.033.029c-.432.152-.814.286-1.154.4s-.764.251-1.3.414l.158.2.59-.064a.5.5,0,0,1,.191.006.2.2,0,0,1,.125.082.626.626,0,0,1,.075.227c.017.1.033.233.058.4l.365,2.957c.025.169.05.332.075.5-.149-.123-.307-.245-.473-.373l-2.9-2.117c-.158-.117-.291-.21-.382-.286a.837.837,0,0,1-.191-.187.119.119,0,0,1-.025-.122.349.349,0,0,1,.116-.111l.465-.286-.158-.192c-.623.216-1.262.437-1.927.653q-.735.245-1.495.472l.158.192.606-.064a1.055,1.055,0,0,1,.415.041,2.028,2.028,0,0,1,.49.28l5.515,3.96.548-.233-.482-5.622a1.353,1.353,0,0,1,.008-.379.454.454,0,0,1,.208-.245l.507-.315Zm12.167-.041-1.2-1.172.208-.1a.692.692,0,0,1,.15-.047.482.482,0,0,1,.133-.012.539.539,0,0,1,.174.035c.066.017.158.041.257.07.357.1.706.216,1.055.338s.673.228.988.327.606.187.872.262a3.66,3.66,0,0,0,.756.122,1.97,1.97,0,0,0,.482-.047,3.576,3.576,0,0,0,.731-.3,9.469,9.469,0,0,0,1.055-.606l-.208-.169c-.091.029-.183.058-.257.076a1.758,1.758,0,0,1-.241.047,1.563,1.563,0,0,1-.233.018,2.03,2.03,0,0,1-.266-.006,5.12,5.12,0,0,1-.673-.14c-.257-.076-.548-.158-.88-.257s-.656-.2-1-.309-.781-.239-1.354-.391a1.839,1.839,0,0,0,.631-1.062,1.3,1.3,0,0,0-.482-1.044,2.038,2.038,0,0,0-1.528-.566,5.168,5.168,0,0,0-2.209.647c-.075.035-.174.093-.307.158s-.291.157-.482.262c-.208.111-.39.21-.54.286s-.266.146-.374.2c-.482.239-.955.472-1.42.694l.191.169.806-.192a.256.256,0,0,1,.233.058q.124.114.274.262c.1.093.216.2.332.315l2.857,2.811c.141.14.274.268.39.385s.224.227.316.321q.075.088-.025.175l-.523.461.2.169c.448-.233.955-.5,1.528-.781.54-.274.988-.5,1.362-.671l-.191-.169-.64.14a.29.29,0,0,1-.249-.082c-.1-.093-.2-.192-.316-.3S118.229,128.843,118.088,128.7Zm-1.511-1.481-2.027-1.995c.1-.064.183-.123.266-.169s.166-.093.241-.128a2.052,2.052,0,0,1,1.213-.251,1.973,1.973,0,0,1,1.08.6,1.181,1.181,0,0,1,.482.951c-.05.274-.307.531-.772.764C116.917,127.058,116.759,127.134,116.576,127.216Zm13.787-5.721-3.447-2.485c-.141-.1-.266-.192-.382-.28s-.232-.169-.332-.245a.109.109,0,0,1-.017-.169l.424-.513-.241-.14c-.39.28-.83.595-1.337.939-.482.332-.938.63-1.345.9l.233.152.747-.28a.256.256,0,0,1,.241.035c.1.064.216.14.332.228s.249.175.39.28l3.438,2.467c.174.128.332.239.473.344l.374.28a.106.106,0,0,1,.017.175l-.415.513.233.14c.39-.274.83-.589,1.337-.933.49-.332.938-.636,1.345-.9l-.224-.146-.689.257a.333.333,0,0,1-.3-.006c-.108-.082-.241-.169-.382-.268S130.537,121.617,130.363,121.495Zm-8.039-.583,1.412.682.216-.181-1.005-1.231-.066-.012a9.742,9.742,0,0,0-1.736.776,2.635,2.635,0,0,0-1.287,1.417,1.3,1.3,0,0,0,.548,1.406,2.413,2.413,0,0,0,.772.437,3.032,3.032,0,0,0,.814.158,4.252,4.252,0,0,0,.814-.035c.283-.041.548-.087.814-.128.241-.047.482-.093.706-.128a4.48,4.48,0,0,1,.664-.064,2.261,2.261,0,0,1,.606.076,1.32,1.32,0,0,1,.523.274.771.771,0,0,1,.341.782,1.356,1.356,0,0,1-.681.776,2.661,2.661,0,0,1-.872.332l-1.57-.8-.249.2,1.2,1.33.066.012a7.636,7.636,0,0,0,1.869-.8,2.841,2.841,0,0,0,1.387-1.493,1.346,1.346,0,0,0-.573-1.476,2.586,2.586,0,0,0-.781-.443,3.137,3.137,0,0,0-.822-.152,5.093,5.093,0,0,0-.839.035c-.282.041-.556.082-.822.134l-.7.122a5.117,5.117,0,0,1-.656.058,2.146,2.146,0,0,1-.59-.076,1.286,1.286,0,0,1-.515-.262.711.711,0,0,1-.307-.729,1.1,1.1,0,0,1,.573-.7A2.683,2.683,0,0,1,122.323,120.912ZM76.188,135.177l.075.21.839.07a.169.169,0,0,1,.175.123c.033.093.058.2.091.321s.067.245.1.385l.6,2.356a2.612,2.612,0,0,0,1.362,1.837,5.1,5.1,0,0,0,2.849.268,3.653,3.653,0,0,0,2.292-.939,2.283,2.283,0,0,0,.307-2.21l-.548-2.17c-.033-.14-.067-.268-.091-.385s-.058-.227-.075-.321c-.017-.076.025-.128.108-.163l.772-.268-.083-.21c-.54.076-.988.14-1.346.181-.382.052-.839.1-1.37.157l.075.222.772.058a.191.191,0,0,1,.191.111c.025.1.058.21.091.327s.075.245.108.379l.606,2.409a1.824,1.824,0,0,1-.149,1.6,2.168,2.168,0,0,1-1.495.671,2.55,2.55,0,0,1-1.7-.251,2.449,2.449,0,0,1-.889-1.545l-.6-2.35q-.05-.2-.1-.385c-.025-.117-.05-.228-.067-.327-.017-.07.025-.122.116-.152l.739-.251-.091-.216c-.523.076-1.138.158-1.827.245-.673.087-1.279.158-1.835.216" transform="translate(0.163 0.069)" fill="#fff" fill-rule="evenodd"/>
  </g>
</svg>
