<svg xmlns="http://www.w3.org/2000/svg" width="300.177" height="259.527" viewBox="0 0 300.177 259.527">
  <path id="Path_666" data-name="Path 666" d="M37.522,3C16.8,3,0,22.366,0,46.255V219.273c0,23.889,16.8,43.255,37.522,43.255H262.655c20.723,0,37.522-19.365,37.522-43.255V46.255C300.177,22.366,283.379,3,262.655,3ZM262.655,31.836H37.522c-6.908,0-12.507,6.455-12.507,14.418V219.273c0,7.963,5.6,14.418,12.507,14.418H91.476l86.034-99.177c14.654-16.892,38.411-16.892,53.064,0l44.589,51.4V46.255C275.162,38.292,269.563,31.836,262.655,31.836Zm0,201.855h-135.8L195.2,154.9a11.371,11.371,0,0,1,17.688,0L274,225.353C272.009,230.278,267.678,233.691,262.655,233.691Z" transform="translate(0 -3)" fill="#144e9b" fill-rule="evenodd"/>
</svg>
